<?xml version="1.0" standalone="no"?>
<!DOCTYPE svg PUBLIC "-//W3C//DTD SVG 20010904//EN"
 "http://www.w3.org/TR/2001/REC-SVG-20010904/DTD/svg10.dtd">
<svg version="1.0" xmlns="http://www.w3.org/2000/svg"
 width="1056.000000pt" height="480.000000pt" viewBox="0 0 1056.000000 480.000000"
 preserveAspectRatio="xMidYMid meet">

<g transform="translate(0.000000,480.000000) scale(0.100000,-0.100000)"
fill="#000000" stroke="none">
<path d="M0 2400 l0 -2400 5280 0 5280 0 0 2400 0 2400 -5280 0 -5280 0 0
-2400z m1088 855 l2 -800 353 358 352 358 196 -1 c199 0 219 -4 219 -39 0 -9
-129 -141 -288 -293 -158 -152 -320 -310 -360 -350 l-72 -74 53 -64 c29 -36
200 -248 380 -473 287 -356 326 -410 317 -427 -10 -19 -21 -20 -198 -20 -149
0 -192 3 -209 15 -11 8 -148 177 -303 375 l-283 360 -78 -73 -77 -72 -1 -291
c-1 -211 -4 -293 -13 -302 -8 -8 -58 -12 -159 -12 -121 0 -150 3 -163 16 -14
14 -16 146 -16 1303 0 1001 3 1290 12 1299 9 9 57 12 173 10 l160 -3 3 -800z
m6810 -499 c1 -952 -1 -1302 -9 -1312 -14 -17 -294 -20 -319 -4 -13 8 -15 165
-18 1295 -1 891 1 1292 8 1306 10 18 20 19 173 17 l162 -3 3 -1299z m-4653
411 c165 -54 289 -156 355 -292 68 -139 70 -159 70 -828 0 -448 -3 -596 -12
-605 -15 -15 -291 -17 -319 -2 -13 7 -19 21 -19 43 l0 33 -87 -43 c-106 -51
-207 -73 -340 -73 -187 0 -328 55 -448 173 -81 81 -118 148 -142 260 -28 134
-4 269 69 377 96 144 279 236 582 290 92 17 331 50 358 50 14 0 9 95 -8 143
-22 64 -91 139 -156 168 -45 20 -69 24 -158 24 -145 0 -272 -41 -397 -126 -23
-16 -50 -29 -60 -29 -28 0 -177 214 -169 243 11 46 231 158 386 197 113 29
114 29 270 26 124 -3 157 -7 225 -29z m1557 19 c91 -18 189 -54 254 -95 l49
-30 3 42 c2 23 8 47 14 54 16 19 311 18 327 -1 9 -11 11 -255 8 -978 -3 -881
-5 -969 -21 -1038 -79 -332 -271 -519 -596 -580 -30 -6 -110 -11 -177 -11
-215 0 -378 56 -548 188 -127 99 -146 118 -139 140 12 32 197 213 219 213 11
-1 54 -30 95 -65 41 -36 112 -84 158 -107 79 -40 89 -43 184 -46 170 -7 282
31 368 125 83 91 110 190 110 405 l0 140 -32 -22 c-54 -35 -149 -78 -213 -96
-83 -22 -289 -30 -379 -14 -325 57 -548 309 -612 691 -24 143 -15 358 19 489
85 326 295 544 578 599 70 14 251 12 331 -3z m1826 -2 c89 -18 173 -51 243
-94 l49 -30 0 39 c0 67 11 71 179 71 115 0 151 -3 160 -14 9 -10 11 -260 9
-987 l-3 -974 -27 -97 c-99 -362 -358 -548 -763 -549 -137 0 -210 14 -335 62
-120 46 -350 218 -350 261 0 31 187 218 218 218 16 0 46 -20 83 -55 69 -63
172 -126 248 -150 73 -24 253 -17 327 12 112 44 178 112 226 232 19 48 22 80
26 234 l4 178 -54 -34 c-110 -70 -255 -107 -419 -107 -349 0 -605 188 -719
527 -96 288 -74 625 56 871 113 216 268 341 479 387 85 19 270 18 363 -1z
m2607 -18 c209 -68 383 -218 480 -411 68 -136 87 -221 89 -395 0 -80 -2 -153
-6 -162 -7 -17 -47 -18 -648 -18 l-641 0 7 -37 c19 -105 91 -227 170 -290 192
-151 506 -164 725 -28 31 19 63 35 71 35 23 0 229 -215 223 -232 -16 -40 -171
-127 -306 -172 -139 -46 -242 -60 -403 -53 -135 5 -236 28 -350 77 -124 53
-274 179 -355 299 -195 287 -211 704 -38 1011 56 99 208 254 298 304 147 81
263 106 459 102 124 -3 157 -7 225 -30z m595 4 c0 -5 -9 -10 -20 -10 -16 0
-19 -8 -22 -57 -4 -81 -28 -85 -28 -4 0 58 -1 61 -25 61 -14 0 -25 5 -25 10 0
6 27 10 60 10 33 0 60 -4 60 -10z m60 -27 c18 -57 26 -59 42 -11 11 31 21 44
37 46 21 3 22 1 19 -64 -2 -43 -8 -69 -15 -72 -9 -2 -13 11 -14 45 l0 48 -17
-44 c-9 -24 -22 -46 -28 -48 -7 -2 -19 15 -27 39 l-15 43 -1 -42 c-1 -31 -5
-43 -16 -43 -12 0 -15 14 -15 70 0 62 2 70 19 70 14 0 23 -11 31 -37z"/>
<path d="M3195 2224 c-322 -43 -477 -101 -532 -199 -25 -44 -30 -115 -12 -162
26 -69 112 -127 216 -145 139 -23 322 23 421 106 l32 28 0 194 c0 149 -3 194
-12 193 -7 -1 -58 -7 -113 -15z"/>
<path d="M4508 2841 c-134 -44 -213 -132 -263 -291 -25 -83 -32 -321 -11 -429
31 -163 112 -283 232 -342 56 -28 78 -33 163 -37 217 -10 378 54 451 182 l30
51 0 325 0 326 -32 54 c-40 66 -112 122 -193 151 -88 31 -297 37 -377 10z"/>
<path d="M6340 2846 c-150 -41 -240 -140 -287 -316 -24 -91 -25 -358 0 -447
62 -231 204 -343 430 -343 192 0 335 63 409 179 l28 45 0 336 0 336 -28 45
c-79 123 -207 179 -407 178 -55 0 -120 -6 -145 -13z"/>
<path d="M8866 2889 c-97 -23 -222 -115 -280 -207 -27 -43 -58 -116 -70 -164
l-6 -28 464 0 464 0 -5 43 c-12 90 -43 148 -117 223 -77 77 -125 106 -213 129
-63 16 -176 18 -237 4z"/>
</g>
</svg>
